<svg xmlns="http://www.w3.org/2000/svg" width="2800" height="1500" viewBox="0 0 2800 1500">
<rect x="0" y="0" width="100%" height="100%" fill="white"/>
<style>text{font-family:Arial, Helvetica, sans-serif; letter-spacing:0;}</style>
<text x="1400.0" y="34" font-size="52" font-weight="700" fill="#242629" text-anchor="middle" dominant-baseline="hanging">Figure 3. Robustness of hypotension-burden dose-response shape</text>
<text x="1400.0" y="98" font-size="27" font-weight="400" fill="#66727F" text-anchor="middle" dominant-baseline="hanging">Original nonlinearity attenuated after P99 winsorization; adjusted for hypoxemia burden, age, sex, and GCS</text>
<rect x="68" y="178" width="1252" height="1007" fill="white" stroke="#CAD3DC" stroke-width="2"/>
<rect x="68" y="178" width="1252" height="96" fill="#4B5F95"/>
<text x="104" y="196" font-size="43" font-weight="700" fill="white" text-anchor="start" dominant-baseline="hanging">A. Original 3-knot RCS</text>
<text x="104" y="244" font-size="25" font-weight="400" fill="white" text-anchor="start" dominant-baseline="hanging">Primary shape analysis</text>
<line x1="178.0" y1="348" x2="178.0" y2="958" stroke="#E8EDF3" stroke-width="1"/>
<text x="178.0" y="978" font-size="27" font-weight="400" fill="#66727F" text-anchor="middle" dominant-baseline="hanging">0</text>
<line x1="381.26502815582387" y1="348" x2="381.26502815582387" y2="958" stroke="#E8EDF3" stroke-width="1"/>
<text x="381.26502815582387" y="978" font-size="27" font-weight="400" fill="#66727F" text-anchor="middle" dominant-baseline="hanging">1</text>
<line x1="584.5300563116477" y1="348" x2="584.5300563116477" y2="958" stroke="#E8EDF3" stroke-width="1"/>
<text x="584.5300563116477" y="978" font-size="27" font-weight="400" fill="#66727F" text-anchor="middle" dominant-baseline="hanging">2</text>
<line x1="787.7950844674715" y1="348" x2="787.7950844674715" y2="958" stroke="#E8EDF3" stroke-width="1"/>
<text x="787.7950844674715" y="978" font-size="27" font-weight="400" fill="#66727F" text-anchor="middle" dominant-baseline="hanging">3</text>
<line x1="991.0601126232954" y1="348" x2="991.0601126232954" y2="958" stroke="#E8EDF3" stroke-width="1"/>
<text x="991.0601126232954" y="978" font-size="27" font-weight="400" fill="#66727F" text-anchor="middle" dominant-baseline="hanging">4</text>
<line x1="1194.325140779119" y1="348" x2="1194.325140779119" y2="958" stroke="#E8EDF3" stroke-width="1"/>
<text x="1194.325140779119" y="978" font-size="27" font-weight="400" fill="#66727F" text-anchor="middle" dominant-baseline="hanging">5</text>
<line x1="178" y1="943.5905511811023" x2="1240" y2="943.5905511811023" stroke="#E8EDF3" stroke-width="1"/>
<text x="140" y="930.5905511811023" font-size="27" font-weight="400" fill="#66727F" text-anchor="end" dominant-baseline="hanging">1</text>
<line x1="178" y1="847.5275590551181" x2="1240" y2="847.5275590551181" stroke="#E8EDF3" stroke-width="1"/>
<text x="140" y="834.5275590551181" font-size="27" font-weight="400" fill="#66727F" text-anchor="end" dominant-baseline="hanging">2</text>
<line x1="178" y1="751.4645669291339" x2="1240" y2="751.4645669291339" stroke="#E8EDF3" stroke-width="1"/>
<text x="140" y="738.4645669291339" font-size="27" font-weight="400" fill="#66727F" text-anchor="end" dominant-baseline="hanging">3</text>
<line x1="178" y1="655.4015748031496" x2="1240" y2="655.4015748031496" stroke="#E8EDF3" stroke-width="1"/>
<text x="140" y="642.4015748031496" font-size="27" font-weight="400" fill="#66727F" text-anchor="end" dominant-baseline="hanging">4</text>
<line x1="178" y1="559.3385826771654" x2="1240" y2="559.3385826771654" stroke="#E8EDF3" stroke-width="1"/>
<text x="140" y="546.3385826771654" font-size="27" font-weight="400" fill="#66727F" text-anchor="end" dominant-baseline="hanging">5</text>
<line x1="178" y1="463.2755905511811" x2="1240" y2="463.2755905511811" stroke="#E8EDF3" stroke-width="1"/>
<text x="140" y="450.2755905511811" font-size="27" font-weight="400" fill="#66727F" text-anchor="end" dominant-baseline="hanging">6</text>
<line x1="178" y1="367.2125984251969" x2="1240" y2="367.2125984251969" stroke="#E8EDF3" stroke-width="1"/>
<text x="140" y="354.2125984251969" font-size="27" font-weight="400" fill="#66727F" text-anchor="end" dominant-baseline="hanging">7</text>
<line x1="178" y1="943.5905511811023" x2="1240" y2="943.5905511811023" stroke="#8B96A3" stroke-width="2"/>
<line x1="178" y1="348" x2="178" y2="958" stroke="#CAD3DC" stroke-width="2"/>
<line x1="178" y1="958" x2="1240" y2="958" stroke="#CAD3DC" stroke-width="2"/>
<polygon points="178.0,943.5905511811023 178.71420826413055,942.7015520221088 179.01597600320136,942.3235085808107 179.37359810238544,941.8736463068826 179.74904200096756,941.3992258185106 180.1218630632805,940.9259680190544 180.32522565864983,940.6669228728631 180.47681258604732,940.4734202723598 180.83137901401992,940.0194525978079 181.05000561732712,939.738591307488 181.6827978679448,938.9216504300757 182.2405150173868,938.1967417826024 182.40760269669613,937.978683602672 182.836815695338,937.4166956862949 183.08744099678347,937.0873240853606 184.26286000115286,935.5308423491389 185.32228832812606,934.111801347526 186.45340464349994,932.5804922157391 186.53461069619547,932.4699282463912 187.45518700848814,931.2108398777938 188.15021422802062,930.2534687698345 188.37156266962248,929.9473821364011 188.82688733291658,929.3159822456357 189.51641061375724,928.355403668116 190.21112791390559,927.3823899923692 190.8316888708055,926.5089968171072 191.89765994033206,924.9998429846875 192.9636965329383,923.4800790701518 193.75533777257115,922.3452010398 194.4815554128358,921.2997427377579 195.02283631296578,920.5179766308589 195.3616164614458,920.0276192576778 196.07598016353907,918.9909877120963 197.21236176054813,917.3346565665696 198.04137698220504,916.1207689400295 198.68415982852423,915.1764006736645 200.46505465508045,912.5457803351256 201.41939065806122,911.1277424321503 203.35627680647207,908.2324314367535 204.77361706464598,906.0995445135926 206.25308802873198,903.8608558895634 206.96492454868695,902.7793881560233 208.12736711365886,901.0074526972035 209.14213691826959,899.4548186649498 209.91242480799173,898.2727449787293 213.0796497800264,893.3821665783518 214.84849362090156,890.6310261587911 216.64089803075794,887.8298887921087 217.45906272607655,886.5470610718962 218.97316718133638,884.1664762709847 220.5156177817462,881.7330562669983 221.4241976312124,880.2959915499104 223.01777249496266,877.7693962403924 224.8783940830801,874.8103583445499 226.81710674712042,871.7178930291165 228.66561086993585,868.7616744920097 230.37733293346338,866.0185137284188 231.83570163973218,863.6777247004159 234.8214951172589,858.8772175330164 235.3250442889153,858.0668022325042 236.0487648780929,856.9017376041337 239.0492661347863,852.0690078455884 240.6319373841557,849.5194333090683 242.12739024043185,847.110888271932 245.7647495265768,841.2584290931131 247.77811258745157,838.0248532684383 249.054269739775,835.9782899868267 250.83803323371683,833.1224032616825 252.03496772174884,831.2095772085734 253.90995082107915,828.2196388273857 255.33849839549958,825.9475179475548 257.6678917046326,822.2549369549804 262.76721581409737,814.2341234227915 265.0088627193348,810.7397532040546 269.72417088527715,803.4626970889825 276.3921897407752,793.3680360628186 279.02483008011336,789.4540748780105 283.4725104228434,782.9437120597929 286.6116020801693,778.4312747961743 290.0190236620284,773.6154153789046 291.84311254620303,771.0741225393181 293.7984384196975,768.3794615263926 300.903646871813,758.8565812260838 305.7738554242471,752.5857510401731 313.41087310445124,743.1985296811043 324.20144391176075,730.9140998633827 329.28011103338775,725.5443988557148 333.31779098793703,721.4674255396055 352.5248477703858,704.4227475160986 360.8230239337248,698.2467699061616 363.94786456035916,696.1016341634511 371.9191714275975,691.0634603674795 382.52380925699924,685.2849863443087 389.4845541448451,682.0290790428585 397.2393574522116,678.863871027251 403.3514254117947,676.6859188888832 406.36025718674796,675.7089423799707 411.95874568250883,674.0463699122841 415.05363030497017,673.2085546452965 424.5919737538833,670.9513732947028 438.612210636794,668.3623788294121 447.6439970699042,667.0258925846038 461.34275381044927,665.2741730267237 470.7421715910007,664.1290079917305 476.92754505033787,663.351870291132 492.8922701937136,661.2256575902213 516.1888729918367,657.8021873238291 528.7507703429889,655.7930221694404 554.037508987652,651.3892623271622 559.9302726344106,650.2923410048944 574.0978202267972,647.5431334926295 586.4127309596436,645.0228725564327 628.221020400624,635.5318672287956 653.9967142661926,628.9363030010011 678.123241956758,622.2305670411779 699.6887273815024,615.7907367118303 754.0912615310824,597.6198348939727 848.1236928583527,559.4291896381358 1028.171557536954,460.4658271086525 1226.4776359334828,348.0 1226.4776359334828,878.7025480589699 1028.171557536954,873.9675656225292 848.1236928583527,873.9374181681219 754.0912615310824,876.3876194962431 699.6887273815024,878.7515165046635 678.123241956758,879.8916811615688 653.9967142661926,881.3054654519943 628.221020400624,882.9765572761518 586.4127309596436,886.0330970213258 574.0978202267972,887.0126167915018 559.9302726344106,888.1824756009077 554.037508987652,888.6823141164867 528.7507703429889,890.9125827943087 516.1888729918367,892.0700859960992 492.8922701937136,894.2985743455247 476.92754505033787,895.8835047206843 470.7421715910007,896.5094707211659 461.34275381044927,897.473585318812 447.6439970699042,898.9136212419805 438.612210636794,899.8907872766276 424.5919737538833,901.4589231046798 415.05363030497017,902.5653072219691 411.95874568250883,902.9316542116593 406.36025718674796,903.6038812587311 403.3514254117947,903.9703420397572 397.2393574522116,904.7262026071378 389.4845541448451,905.7078690298463 382.52380925699924,906.6112250713016 371.9191714275975,908.0291065598715 363.94786456035916,909.1288703420964 360.8230239337248,909.5681013166021 352.5248477703858,910.7570182490995 333.31779098793703,913.6369541275785 329.28011103338775,914.2655194038803 324.20144391176075,915.0677049784658 313.41087310445124,916.8151591363423 305.7738554242471,918.087528742093 300.903646871813,918.9144126752107 293.7984384196975,920.142431182738 291.84311254620303,920.4848910757678 290.0190236620284,920.8061222971176 286.6116020801693,921.4107265791239 283.4725104228434,921.9729497857962 279.02483008011336,922.7781242477135 276.3921897407752,923.2594485292029 269.72417088527715,924.4942541264699 265.0088627193348,925.380983473684 262.76721581409737,925.8064472879853 257.6678917046326,926.7836502992419 255.33849839549958,927.2343462189738 253.90995082107915,927.5120746451583 252.03496772174884,927.8781261484834 250.83803323371683,928.1127088487937 249.054269739775,928.4636086217257 247.77811258745157,928.7156099618917 245.7647495265768,929.1148050737894 242.12739024043185,929.8409949324187 240.6319373841557,930.1414168152584 239.0492661347863,930.4605338240726 236.0487648780929,931.0688288156932 235.3250442889153,931.2161932518734 234.8214951172589,931.3188733435843 231.83570163973218,931.9301857362108 230.37733293346338,932.2303032957959 228.66561086993585,932.5838328699616 226.81710674712042,932.9671510950075 224.8783940830801,933.3708828715492 223.01777249496266,933.7599868998667 221.4241976312124,934.0945102192071 220.5156177817462,934.2857596483877 218.97316718133638,934.6112956588204 217.45906272607655,934.9318989780581 216.64089803075794,935.1055717950485 214.84849362090156,935.487099255047 213.0796497800264,935.8650198808712 209.91242480799173,936.5451759878548 209.14213691826959,936.7112614234499 208.12736711365886,936.9304567730222 206.96492454868695,937.1821012539416 206.25308802873198,937.3364883075604 204.77361706464598,937.6580639694658 203.35627680647207,937.9670166626499 201.41939065806122,938.3906055482948 200.46505465508045,938.5998993704933 198.68415982852423,938.991488997186 198.04137698220504,939.1331523785664 197.21236176054813,939.3161136175755 196.07598016353907,939.5673726473374 195.3616164614458,939.7255944805106 195.02283631296578,939.8007030336049 194.4815554128358,939.9208040542488 193.75533777257115,940.0821182136963 192.9636965329383,940.2581743512125 191.89765994033206,940.4955498640442 190.8316888708055,940.7331859395987 190.21112791390559,940.8716262845504 189.51641061375724,941.0266760728009 188.82688733291658,941.1806175496995 188.37156266962248,941.2822911828337 188.15021422802062,941.3317216190046 187.45518700848814,941.4869384649884 186.53461069619547,941.6925167613869 186.45340464349994,941.7106494999342 185.32228832812606,941.9631632461063 184.26286000115286,942.1995297694405 183.08744099678347,942.4615330631295 182.836815695338,942.5173571760656 182.40760269669613,942.6129217185097 182.2405150173868,942.6501101518162 181.6827978679448,942.7741805055895 181.05000561732712,942.9148316905373 180.83137901401992,942.9633939376666 180.47681258604732,943.0421145934486 180.32522565864983,943.0757553556602 180.1218630632805,943.1208723035073 179.74904200096756,943.2035411869067 179.37359810238544,943.2867328387294 179.01597600320136,943.3659181360116 178.71420826413055,943.4326907734159 178.0,943.5905511811023" fill="#E9EEF8" opacity="0.78"/>
<line x1="178" y1="943.5905511811023" x2="1240" y2="943.5905511811023" stroke="#8B96A3" stroke-width="2"/>
<line x1="178" y1="348" x2="178" y2="958" stroke="#CAD3DC" stroke-width="2"/>
<line x1="178" y1="958" x2="1240" y2="958" stroke="#CAD3DC" stroke-width="2"/>
<polyline points="178.0,943.5905511811023 178.71420826413055,943.0678132209213 179.01597600320136,942.8461164142527 179.37359810238544,942.5827608757384 179.74904200096756,942.3055637179344 180.1218630632805,942.0295885405401 180.32522565864983,941.8787569952527 180.47681258604732,941.7661928149042 180.83137901401992,941.502460210839 181.05000561732712,941.3395375516983 181.6827978679448,940.8666940015567 182.2405150173868,940.4484120646563 182.40760269669613,940.3228250692337 182.836815695338,939.9996549738056 183.08744099678347,939.810581465593 184.26286000115286,938.9203555846079 185.32228832812606,938.1133400163338 186.45340464349994,937.2472716600452 186.53461069619547,937.1849287940327 187.45518700848814,936.4767435139537 188.15021422802062,935.940407102869 188.37156266962248,935.7693171699804 188.82688733291658,935.4169736270774 189.51641061375724,934.8824268598722 190.21112791390559,934.3427663146114 190.8316888708055,933.8598810537592 191.89765994033206,933.0288235429109 192.9636965329383,932.1960896767674 193.75533777257115,931.5769093157519 194.4815554128358,931.0084848287406 195.02283631296578,930.5846443935462 195.3616164614458,930.3193162016591 196.07598016353907,929.7597166764624 197.21236176054813,928.8692362143133 198.04137698220504,928.2194247802132 198.68415982852423,927.7155028913871 200.46505465508045,926.3190709655019 201.41939065806122,925.5706779223254 203.35627680647207,924.0518288135545 204.77361706464598,922.9406300352534 206.25308802873198,921.7811213118116 206.96492454868695,921.2234286481226 208.12736711365886,920.3130457242092 209.14213691826959,919.5187164173074 209.91242480799173,918.9160458759799 213.0796497800264,916.4411648291306 214.84849362090156,915.0616266550741 216.64089803075794,913.6660236589667 217.45906272607655,913.0298386657267 218.97316718133638,911.8540479962334 220.5156177817462,910.6584592390634 221.4241976312124,909.9553201938179 223.01777249496266,908.7242186359433 224.8783940830801,907.2905112608018 226.81710674712042,905.8012043213741 228.66561086993585,904.3858719658181 230.37733293346338,903.0796165977883 231.83570163973218,901.9701890786471 234.8214951172589,899.7094702280581 235.3250442889153,899.3296857229614 236.0487648780929,898.784623225183 239.0492661347863,896.5349911920162 240.6319373841557,895.3552733780464 242.12739024043185,894.245154208538 245.7647495265768,891.5645646595738 247.77811258745157,890.0932873030715 249.054269739775,889.1655434077456 250.83803323371683,887.875232266652 252.03496772174884,887.013734394552 253.90995082107915,885.6713736468317 255.33849839549958,884.6546407825512 257.6678917046326,883.0082196008974 262.76721581409737,879.4557083025602 265.0088627193348,877.9174472238693 269.72417088527715,874.7306220334043 276.3921897407752,870.3426497632615 279.02483008011336,868.650128952049 283.4725104228434,865.8439771033479 286.6116020801693,863.9046974480071 290.0190236620284,861.8391867590715 291.84311254620303,860.750643414538 293.7984384196975,859.5972543191086 300.903646871813,855.5253784714697 305.7738554242471,852.844315976475 313.41087310445124,848.8236325144344 324.20144391176075,843.5296987941216 329.28011103338775,841.195676462045 333.31779098793703,839.4118661134333 352.5248477703858,831.783187869179 360.8230239337248,828.9118743936881 363.94786456035916,827.8942446034144 371.9191714275975,825.4504309987198 382.52380925699924,822.522213628024 389.4845541448451,820.7877168199238 397.2393574522116,819.0172112293342 403.3514254117947,817.7332665465808 406.36025718674796,817.134914962272 411.95874568250883,816.0769268791229 415.05363030497017,815.5212227509569 424.5919737538833,813.9265924291186 438.612210636794,811.853902312729 447.6439970699042,810.6478959488047 461.34275381044927,808.938907581178 470.7421715910007,807.8042143432626 476.92754505033787,807.0575286171708 492.8922701937136,805.1191671858783 516.1888729918367,802.2615819964776 528.7507703429889,800.7063051624515 554.037508987652,797.5446096628618 559.9302726344106,796.8018251001228 574.0978202267972,795.0066625779746 586.4127309596436,793.4354697244096 628.221020400624,788.0257105903611 653.9967142661926,784.631415748679 678.123241956758,781.4128184193071 699.6887273815024,778.5015096804266 754.0912615310824,771.010579953121 848.1236928583527,757.5526409912977 1028.171557536954,729.8741330467797 1226.4776359334828,696.2358682192512" fill="none" stroke="#4B5F95" stroke-width="7" stroke-linejoin="round" stroke-linecap="round"/>
<rect x="178.0" y="1010.0" width="24.902439024390247" height="44.0" fill="#D4DAE2"/>
<rect x="203.90243902439025" y="1033.4610671515418" width="24.902439024390247" height="20.53893284845815" fill="#D4DAE2"/>
<rect x="229.8048780487805" y="1034.8814210796309" width="24.90243902439022" height="19.11857892036909" fill="#D4DAE2"/>
<rect x="255.7073170731707" y="1039.7570496053684" width="24.902439024390276" height="14.242950394631677" fill="#D4DAE2"/>
<rect x="281.609756097561" y="1039.5757443725504" width="24.90243902439022" height="14.424255627449705" fill="#D4DAE2"/>
<rect x="307.5121951219512" y="1042.5029279720031" width="24.90243902439022" height="11.497072027996946" fill="#D4DAE2"/>
<rect x="333.4146341463414" y="1045.2584353218383" width="24.902439024390333" height="8.741564678161598" fill="#D4DAE2"/>
<rect x="359.31707317073176" y="1042.2570573040668" width="24.90243902439022" height="11.742942695933236" fill="#D4DAE2"/>
<rect x="385.219512195122" y="1041.78736907005" width="24.90243902439022" height="12.212630929949858" fill="#D4DAE2"/>
<rect x="411.1219512195122" y="1043.2944149252746" width="24.902439024390276" height="10.70558507472535" fill="#D4DAE2"/>
<rect x="437.0243902439025" y="1043.5798910760916" width="24.90243902439022" height="10.42010892390836" fill="#D4DAE2"/>
<rect x="462.9268292682927" y="1043.2944149252746" width="24.90243902439022" height="10.70558507472535" fill="#D4DAE2"/>
<rect x="488.8292682926829" y="1046.1285286520333" width="24.902439024390276" height="7.871471347966618" fill="#D4DAE2"/>
<rect x="514.7317073170732" y="1044.5249127133668" width="24.902439024390333" height="9.47508728663324" fill="#D4DAE2"/>
<rect x="540.6341463414635" y="1044.878524802684" width="24.902439024390105" height="9.121475197315839" fill="#D4DAE2"/>
<rect x="566.5365853658536" y="1044.878524802684" width="24.902439024390333" height="9.121475197315839" fill="#D4DAE2"/>
<rect x="592.439024390244" y="1047.2624563566833" width="24.902439024390333" height="6.73754364331662" fill="#D4DAE2"/>
<rect x="618.3414634146343" y="1046.1285286520333" width="24.902439024390105" height="7.871471347966618" fill="#D4DAE2"/>
<rect x="644.2439024390244" y="1045.671563446502" width="24.902439024390333" height="8.328436553498051" fill="#D4DAE2"/>
<rect x="670.1463414634147" y="1046.1285286520333" width="24.90243902439022" height="7.871471347966618" fill="#D4DAE2"/>
<rect x="696.048780487805" y="1046.6472074626374" width="24.90243902439022" height="7.352792537362675" fill="#D4DAE2"/>
<rect x="721.9512195121952" y="1047.2624563566833" width="24.90243902439022" height="6.73754364331662" fill="#D4DAE2"/>
<rect x="747.8536585365854" y="1048.0642643260167" width="24.902439024390333" height="5.935735673983309" fill="#D4DAE2"/>
<rect x="773.7560975609757" y="1048.0642643260167" width="24.902439024390105" height="5.935735673983309" fill="#D4DAE2"/>
<rect x="799.6585365853658" y="1050.0" width="24.902439024390333" height="4.0" fill="#D4DAE2"/>
<rect x="825.5609756097562" y="1046.6472074626374" width="24.902439024390333" height="7.352792537362675" fill="#D4DAE2"/>
<rect x="851.4634146341465" y="1050.0" width="24.90243902439022" height="4.0" fill="#D4DAE2"/>
<rect x="877.3658536585367" y="1048.0642643260167" width="24.90243902439022" height="5.935735673983309" fill="#D4DAE2"/>
<rect x="903.2682926829269" y="1050.0" width="24.90243902439022" height="4.0" fill="#D4DAE2"/>
<rect x="929.1707317073171" y="1047.2624563566833" width="24.90243902439022" height="6.73754364331662" fill="#D4DAE2"/>
<rect x="955.0731707317074" y="1050.0" width="24.90243902439022" height="4.0" fill="#D4DAE2"/>
<rect x="980.9756097560976" y="1048.0642643260167" width="24.90243902439022" height="5.935735673983309" fill="#D4DAE2"/>
<rect x="1006.8780487804878" y="1050.0" width="24.902439024390446" height="4.0" fill="#D4DAE2"/>
<rect x="1032.7804878048782" y="1050.0" width="24.902439024390333" height="4.0" fill="#D4DAE2"/>
<rect x="1058.6829268292686" y="1047.2624563566833" width="24.902439024390333" height="6.73754364331662" fill="#D4DAE2"/>
<rect x="1084.585365853659" y="1050.0" width="24.902439024389878" height="4.0" fill="#D4DAE2"/>
<rect x="1110.4878048780488" y="1050.0" width="24.902439024390333" height="4.0" fill="#D4DAE2"/>
<rect x="1136.3902439024391" y="1050.0" width="24.902439024390333" height="4.0" fill="#D4DAE2"/>
<rect x="1162.2926829268295" y="1050.0" width="24.902439024390105" height="4.0" fill="#D4DAE2"/>
<rect x="1188.1951219512196" y="1050.0" width="24.902439024390333" height="4.0" fill="#D4DAE2"/>
<rect x="1214.09756097561" y="1043.2944149252746" width="24.902439024390333" height="10.70558507472535" fill="#D4DAE2"/>
<text x="178" y="1074" font-size="25" font-weight="400" fill="#66727F" text-anchor="start" dominant-baseline="hanging">eICU distribution</text>
<line x1="194.77282032833412" y1="962" x2="194.77282032833412" y2="1010" stroke="#4F6E56" stroke-width="3"/>
<text x="194.77282032833412" y="1020" font-size="25" font-weight="700" fill="#4F6E56" text-anchor="middle" dominant-baseline="hanging">P50</text>
<line x1="470.1358320120118" y1="962" x2="470.1358320120118" y2="1010" stroke="#4F6E56" stroke-width="3"/>
<text x="470.1358320120118" y="1020" font-size="25" font-weight="700" fill="#4F6E56" text-anchor="middle" dominant-baseline="hanging">P90</text>
<line x1="1240.0" y1="962" x2="1240.0" y2="1010" stroke="#C39232" stroke-width="3"/>
<text x="1240.0" y="1020" font-size="25" font-weight="700" fill="#C39232" text-anchor="middle" dominant-baseline="hanging">P99</text>
<rect x="196" y="366" width="354" height="50" fill="white" stroke="#CAD3DC" stroke-width="1"/>
<text x="212" y="377" font-size="29" font-weight="400" fill="#242629" text-anchor="start" dominant-baseline="hanging">RCS vs linear P=0.019</text>
<rect x="196" y="428" width="492" height="62" fill="#EEF2F8" stroke="#CAD3DC" stroke-width="1"/>
<text x="212" y="438" font-size="22" font-weight="700" fill="#66727F" text-anchor="start" dominant-baseline="hanging">Nominal nonlinearity; not robust after P99</text>
<text x="212" y="463" font-size="22" font-weight="700" fill="#66727F" text-anchor="start" dominant-baseline="hanging">winsorization</text>
<text x="709.0" y="1127" font-size="29" font-weight="400" fill="#242629" text-anchor="middle" dominant-baseline="hanging">Hypotension burden, MAP &lt;65 time-weighted deficit</text>
<rect x="1480" y="178" width="1252" height="1007" fill="white" stroke="#CAD3DC" stroke-width="2"/>
<rect x="1480" y="178" width="1252" height="96" fill="#4F6E56"/>
<text x="1516" y="196" font-size="43" font-weight="700" fill="white" text-anchor="start" dominant-baseline="hanging">B. 99th-percentile winsorized check</text>
<text x="1516" y="244" font-size="25" font-weight="400" fill="white" text-anchor="start" dominant-baseline="hanging">Tail-sensitivity analysis</text>
<line x1="1590.0" y1="348" x2="1590.0" y2="958" stroke="#E8EDF3" stroke-width="1"/>
<text x="1590.0" y="978" font-size="27" font-weight="400" fill="#66727F" text-anchor="middle" dominant-baseline="hanging">0</text>
<line x1="1793.2650281558238" y1="348" x2="1793.2650281558238" y2="958" stroke="#E8EDF3" stroke-width="1"/>
<text x="1793.2650281558238" y="978" font-size="27" font-weight="400" fill="#66727F" text-anchor="middle" dominant-baseline="hanging">1</text>
<line x1="1996.5300563116477" y1="348" x2="1996.5300563116477" y2="958" stroke="#E8EDF3" stroke-width="1"/>
<text x="1996.5300563116477" y="978" font-size="27" font-weight="400" fill="#66727F" text-anchor="middle" dominant-baseline="hanging">2</text>
<line x1="2199.7950844674715" y1="348" x2="2199.7950844674715" y2="958" stroke="#E8EDF3" stroke-width="1"/>
<text x="2199.7950844674715" y="978" font-size="27" font-weight="400" fill="#66727F" text-anchor="middle" dominant-baseline="hanging">3</text>
<line x1="2403.0601126232955" y1="348" x2="2403.0601126232955" y2="958" stroke="#E8EDF3" stroke-width="1"/>
<text x="2403.0601126232955" y="978" font-size="27" font-weight="400" fill="#66727F" text-anchor="middle" dominant-baseline="hanging">4</text>
<line x1="2606.325140779119" y1="348" x2="2606.325140779119" y2="958" stroke="#E8EDF3" stroke-width="1"/>
<text x="2606.325140779119" y="978" font-size="27" font-weight="400" fill="#66727F" text-anchor="middle" dominant-baseline="hanging">5</text>
<line x1="1590" y1="943.5905511811023" x2="2652" y2="943.5905511811023" stroke="#E8EDF3" stroke-width="1"/>
<text x="1552" y="930.5905511811023" font-size="27" font-weight="400" fill="#66727F" text-anchor="end" dominant-baseline="hanging">1</text>
<line x1="1590" y1="847.5275590551181" x2="2652" y2="847.5275590551181" stroke="#E8EDF3" stroke-width="1"/>
<text x="1552" y="834.5275590551181" font-size="27" font-weight="400" fill="#66727F" text-anchor="end" dominant-baseline="hanging">2</text>
<line x1="1590" y1="751.4645669291339" x2="2652" y2="751.4645669291339" stroke="#E8EDF3" stroke-width="1"/>
<text x="1552" y="738.4645669291339" font-size="27" font-weight="400" fill="#66727F" text-anchor="end" dominant-baseline="hanging">3</text>
<line x1="1590" y1="655.4015748031496" x2="2652" y2="655.4015748031496" stroke="#E8EDF3" stroke-width="1"/>
<text x="1552" y="642.4015748031496" font-size="27" font-weight="400" fill="#66727F" text-anchor="end" dominant-baseline="hanging">4</text>
<line x1="1590" y1="559.3385826771654" x2="2652" y2="559.3385826771654" stroke="#E8EDF3" stroke-width="1"/>
<text x="1552" y="546.3385826771654" font-size="27" font-weight="400" fill="#66727F" text-anchor="end" dominant-baseline="hanging">5</text>
<line x1="1590" y1="463.2755905511811" x2="2652" y2="463.2755905511811" stroke="#E8EDF3" stroke-width="1"/>
<text x="1552" y="450.2755905511811" font-size="27" font-weight="400" fill="#66727F" text-anchor="end" dominant-baseline="hanging">6</text>
<line x1="1590" y1="367.2125984251969" x2="2652" y2="367.2125984251969" stroke="#E8EDF3" stroke-width="1"/>
<text x="1552" y="354.2125984251969" font-size="27" font-weight="400" fill="#66727F" text-anchor="end" dominant-baseline="hanging">7</text>
<line x1="1590" y1="943.5905511811023" x2="2652" y2="943.5905511811023" stroke="#8B96A3" stroke-width="2"/>
<line x1="1590" y1="348" x2="1590" y2="958" stroke="#CAD3DC" stroke-width="2"/>
<line x1="1590" y1="958" x2="2652" y2="958" stroke="#CAD3DC" stroke-width="2"/>
<polygon points="1590.0,943.5905511811023 1590.7142082641305,942.7625898732159 1591.0159760032013,942.4106592686358 1591.3735981023854,941.9919912191021 1591.7490420009676,941.5506087366828 1592.1218630632804,941.1104508458138 1592.3252256586497,940.8695834484793 1592.4768125860473,940.6896868749634 1592.8313790140198,940.2677316107751 1593.050005617327,940.0067399849129 1593.6827978679448,939.247870291303 1594.2405150173868,938.5748314256136 1594.4076026966961,938.3724380741835 1594.836815695338,937.8509531220928 1595.0874409967835,937.5454067449376 1596.2628600011528,936.1023719202211 1597.322288328126,934.7879700921452 1598.4534046434999,933.3708378598183 1598.5346106961954,933.2685673597279 1599.455187008488,932.1043870368278 1600.1502142280206,931.2197425102171 1600.3715626696226,930.9370084097126 1600.8268873329166,930.3539327210003 1601.5164106137572,929.4672605940711 1602.2111279139056,928.56958018713 1602.8316888708055,927.7642028665517 1603.897659940332,926.3734369749468 1604.9636965329382,924.9739674255541 1605.7553377725712,923.9296011920068 1606.4815554128359,922.9680255429863 1607.0228363129659,922.2492926298219 1607.3616164614457,921.7986048438743 1608.075980163539,920.8461686297686 1609.2123617605482,919.3252884610573 1610.041376982205,918.2113785237811 1610.6841598285243,917.3451973823582 1612.4650546550804,914.9342137874705 1613.4193906580613,913.63566906009 1615.3562768064721,910.9866494441903 1616.773617064646,909.037126691883 1618.253088028732,906.9926000879233 1618.964924548687,906.0055371770101 1620.127367113659,904.3891168900992 1621.1421369182697,902.9735880770619 1621.9124248079918,901.8964105429108 1625.0796497800263,897.4443646262856 1626.8484936209015,894.9429998760075 1628.6408980307579,892.3983438874291 1629.4590627260766,891.2336811081022 1630.9731671813363,889.0735139812778 1632.5156177817462,886.8668805508022 1633.4241976312123,885.5644236314777 1635.0177724949626,883.2756700304468 1636.8783940830801,880.5970205013161 1638.8171067471203,877.799603796058 1640.6656108699358,875.1272604004653 1642.3773329334633,872.6490260134383 1643.8357016397322,870.5353938982213 1646.8214951172588,866.2036744961221 1647.3250442889153,865.4727661784531 1648.048764878093,864.4221780767973 1651.0492661347864,860.066399015757 1652.6319373841557,857.7697105630085 1654.1273902404319,855.600793648434 1657.764749526577,850.3332354742253 1659.7781125874517,847.4242179758785 1661.054269739775,845.5835070562681 1662.838033233717,843.0153703152243 1664.034967721749,841.2955550500254 1665.909950821079,838.6076882113023 1667.3384983954995,836.5653681344368 1669.6678917046327,833.2465789550339 1674.7672158140974,826.0381662424468 1677.0088627193347,822.8974843517669 1681.724170885277,816.3553718332537 1688.3921897407752,807.2735143034171 1691.0248300801134,803.7490732593913 1695.4725104228435,797.8812735654715 1698.6116020801692,793.80943355435 1702.0190236620283,789.4585898904179 1703.843112546203,787.1602075078405 1705.7984384196975,784.7210362040178 1712.903646871813,776.0809963718029 1717.7738554242471,770.3709015008786 1725.4108731044512,761.7837473230196 1736.2014439117606,750.4513387753789 1741.2801110333878,745.4529079383314 1745.317790987937,741.6346758083146 1764.5248477703858,725.3649031978956 1772.823023933725,719.2872711308185 1775.9478645603592,717.1422983411883 1783.9191714275976,712.0143113989907 1794.5238092569991,705.9198286609432 1801.484554144845,702.3387066092705 1809.2393574522116,698.7059837879135 1815.3514254117947,696.0847074936235 1818.360257186748,694.8661826542935 1823.9587456825088,692.7147203133671 1827.05363030497,691.5852987285895 1836.5919737538832,688.3386519534613 1850.6122106367939,684.0664051352207 1859.6439970699041,681.5167865876657 1873.3427538104493,677.7585324312029 1882.7421715910007,675.1362491118946 1888.9275450503378,673.3479912212002 1904.8922701937136,668.4659065694473 1928.1888729918367,660.6144926636059 1940.7507703429887,656.0014593364663 1966.037508987652,645.8564038062091 1971.9302726344106,643.3201071271335 1986.0978202267972,636.9447129286576 1998.4127309596436,631.0754129164368 2040.221020400624,608.7474750220301 2065.9967142661926,593.020746496617 2090.1232419567577,576.8594934043788 2111.6887273815023,561.1817227445798 2166.0912615310826,516.1548383548096 2260.1236928583526,417.944900840542 2440.171557536954,348.0 2638.477635933483,348.0 2652.0,348.0 2652.0,851.9872731377941 2638.477635933483,851.7935523203193 2440.171557536954,850.8816148893823 2260.1236928583526,855.3854512639015 2166.0912615310826,861.3205407302155 2111.6887273815023,866.327525460777 2090.1232419567577,868.6731511344034 2065.9967142661926,871.550165781363 2040.221020400624,874.9213644566386 1998.4127309596436,881.031265941694 1986.0978202267972,882.9760018346293 1971.9302726344106,885.2900931088041 1966.037508987652,886.2758685374589 1940.7507703429887,890.6511096991687 1928.1888729918367,892.9055767316622 1904.8922701937136,897.2108898510977 1888.9275450503378,900.2420892058084 1882.7421715910007,901.4316839288833 1873.3427538104493,903.2535589931741 1859.6439970699041,905.9323553694351 1850.6122106367939,907.7077273977897 1836.5919737538832,910.4656996586361 1827.05363030497,912.3352229715845 1823.9587456825088,912.9394483132791 1818.360257186748,914.0284903093927 1815.3514254117947,914.6113244717527 1809.2393574522116,915.7890715248881 1801.484554144845,917.2693906845852 1794.5238092569991,918.5825402930442 1783.9191714275976,920.5499161227231 1775.9478645603592,921.9986792535766 1772.823023933725,922.5588696749685 1764.5248477703858,924.023711628399 1745.317790987937,927.2742213797728 1741.2801110333878,927.9304346254888 1736.2014439117606,928.7415518258273 1725.4108731044512,930.4099443430733 1717.7738554242471,931.5435928533533 1712.903646871813,932.2453282940053 1705.7984384196975,933.2386043536992 1703.843112546203,933.5054771067507 1702.0190236620283,933.7518827098777 1698.6116020801692,934.2055038773066 1695.4725104228435,934.6156367041916 1691.0248300801134,935.1838208261516 1688.3921897407752,935.5129151435661 1681.724170885277,936.322060813362 1677.0088627193347,936.872823440639 1674.7672158140974,937.1283423286648 1669.6678917046327,937.6942667161267 1667.3384983954995,937.9456295674446 1665.909950821079,938.0975449988491 1664.034967721749,938.2943399178014 1662.838033233717,938.4184208853909 1661.054269739775,938.6010887174407 1659.7781125874517,938.730117941517 1657.764749526577,938.9308615832462 1654.1273902404319,939.284712815111 1652.6319373841557,939.4268817758146 1651.0492661347864,939.5752277731928 1648.048764878093,939.8504683677797 1647.3250442889153,939.9156748972216 1646.8214951172588,939.9607723167283 1643.8357016397322,940.2235773651989 1642.3773329334633,940.3490671016316 1640.6656108699358,940.4939388481317 1638.8171067471203,940.6474414410693 1636.8783940830801,940.8051333532482 1635.0177724949626,940.9532794110594 1633.4241976312123,941.0776642991087 1632.5156177817462,941.1475469260556 1630.9731671813363,941.2644550310285 1629.4590627260766,941.3770921368334 1628.6408980307579,941.4370789447979 1626.8484936209015,941.5663352371439 1625.0796497800263,941.6909731317986 1621.9124248079918,941.9068584180867 1621.1421369182697,941.9579425077957 1620.127367113659,942.0243882554768 1618.964924548687,942.0993101167286 1618.253088028732,942.1445588648245 1616.773617064646,942.2370664915429 1615.3562768064721,942.3237370457726 1613.4193906580613,942.4390760230336 1612.4650546550804,942.4945831866556 1610.6841598285243,942.5958218126576 1610.041376982205,942.6316103453836 1609.2123617605482,942.6771773797492 1608.075980163539,942.7385556440149 1607.3616164614457,942.7764971478946 1607.0228363129659,942.7943167692512 1606.4815554128359,942.8225557159699 1605.7553377725712,942.8600033209178 1604.9636965329382,942.9002740887395 1603.897659940332,942.9536451903086 1602.8316888708055,943.0060917648698 1602.2111279139056,943.0362271166804 1601.5164106137572,943.0696380341293 1600.8268873329166,943.1024773319702 1600.3715626696226,943.1239960465304 1600.1502142280206,943.1344110833977 1599.455187008488,943.1669270113182 1598.5346106961954,943.2095843667038 1598.4534046434999,943.2133261204481 1597.322288328126,943.265116251206 1596.2628600011528,943.3131179164723 1595.0874409967835,943.3658859928257 1594.836815695338,943.3770791940492 1594.4076026966961,943.3962059908913 1594.2405150173868,943.4036381779222 1593.6827978679448,943.4283948696158 1593.050005617327,943.4563987258093 1592.8313790140198,943.4660553022305 1592.4768125860473,943.4816982253127 1592.3252256586497,943.4883797293411 1592.1218630632804,943.4973379291408 1591.7490420009676,943.5137461738464 1591.3735981023854,943.530253190512 1591.0159760032013,943.5459638217675 1590.7142082641305,943.5592129311078 1590.0,943.5905511811023" fill="#FAF0D7" opacity="0.78"/>
<line x1="1590" y1="943.5905511811023" x2="2652" y2="943.5905511811023" stroke="#8B96A3" stroke-width="2"/>
<line x1="1590" y1="348" x2="1590" y2="958" stroke="#CAD3DC" stroke-width="2"/>
<line x1="1590" y1="958" x2="2652" y2="958" stroke="#CAD3DC" stroke-width="2"/>
<polyline points="1590.0,943.5905511811023 1590.7142082641305,943.4646755142054 1591.0159760032013,943.4114408899732 1591.3735981023854,943.3483148914876 1591.7490420009676,943.2819985096204 1592.1218630632804,943.2161002229949 1592.3252256586497,943.1801357126037 1592.4768125860473,943.1533189625957 1592.8313790140198,943.0905646568542 1593.050005617327,943.051849847212 1593.6827978679448,942.9397063038598 1594.2405150173868,942.8407596528225 1594.4076026966961,942.8110963106853 1594.836815695338,942.7348557752399 1595.0874409967835,942.6903097822583 1596.2628600011528,942.4811181642449 1597.322288328126,942.292182951178 1598.4534046434999,942.090057623788 1598.5346106961954,942.0755303386392 1599.455187008488,941.9106933194594 1600.1502142280206,941.7860583313183 1600.3715626696226,941.746331909724 1600.8268873329166,941.6645619901208 1601.5164106137572,941.5406032508647 1602.2111279139056,941.4155521711332 1602.8316888708055,941.3037146756341 1603.897659940332,941.1113080972201 1604.9636965329382,940.9185132428453 1605.7553377725712,940.7750993209506 1606.4815554128359,940.6433543629072 1607.0228363129659,940.5450450787253 1607.3616164614457,940.4834650116202 1608.075980163539,940.3534896899471 1609.2123617605482,940.1463789557272 1610.041376982205,939.9950146831029 1610.6841598285243,939.8774948651426 1612.4650546550804,939.5511699577038 1613.4193906580613,939.3758618047929 1615.3562768064721,939.0191182220289 1616.773617064646,938.7572628250414 1618.253088028732,938.4832018576194 1618.964924548687,938.351074320384 1620.127367113659,938.1349364604146 1621.1421369182697,937.9458790588459 1621.9124248079918,937.8021350056149 1625.0796497800263,937.2089584650976 1626.8484936209015,936.8761768300948 1628.6408980307579,936.5378599048664 1629.4590627260766,936.3830610791778 1630.9731671813363,936.0959754710977 1632.5156177817462,935.8026945741722 1633.4241976312123,935.6295490139041 1635.0177724949626,935.3251683706362 1636.8783940830801,934.9686532868226 1638.8171067471203,934.5958789827795 1640.6656108699358,934.2392137734089 1642.3773329334633,933.9078607056015 1643.8357016397322,933.6247298768418 1646.8214951172588,933.0426945038894 1647.3250442889153,932.9442208156811 1648.048764878093,932.8025312456881 1651.0492661347864,932.213085242363 1652.6319373841557,931.9008619815411 1654.1273902404319,931.6050111717832 1657.764749526577,930.8820242193297 1659.7781125874517,930.4797561613422 1661.054269739775,930.2240111693321 1662.838033233717,929.865536388544 1664.034967721749,929.624335817364 1665.909950821079,929.2454324418387 1667.3384983954995,928.9558708285945 1669.6678917046327,928.4820812779858 1674.7672158140974,927.4378080179263 1677.0088627193347,926.975650342065 1681.724170885277,925.9972785953313 1688.3921897407752,924.5992241075147 1691.0248300801134,924.042526380107 1695.4725104228435,923.0958943585551 1698.6116020801692,922.4231166716825 1702.0190236620283,921.6884337276624 1703.843112546203,921.29324692757 1705.7984384196975,920.8681574752694 1712.903646871813,919.3105853615406 1717.7738554242471,918.2311786675746 1725.4108731044512,916.5190239060116 1736.2014439117606,914.0586344895014 1741.2801110333878,912.8836780383892 1745.317790987937,911.9417171374478 1764.5248477703858,907.3641175048829 1772.823023933725,905.3360043181285 1775.9478645603592,904.5642452825617 1783.9191714275976,902.5753843424926 1794.5238092569991,899.8840388825663 1801.484554144845,898.0888141226835 1809.2393574522116,896.0616290953002 1815.3514254117947,894.4434362247813 1818.360257186748,893.6401512446657 1823.9587456825088,892.1336455966281 1827.05363030497,891.2941773905229 1836.5919737538832,888.6767934598977 1850.6122106367939,884.745497377724 1859.6439970699041,882.1589234720818 1873.3427538104493,878.1531289188233 1882.7421715910007,875.3457655410095 1888.9275450503378,873.471783551557 1904.8922701937136,868.5355824344285 1928.1888729918367,861.0681237570828 1940.7507703429887,856.9072111498342 1966.037508987652,848.2351096874003 1971.9302726344106,846.1557604796076 1986.0978202267972,841.0636255167959 1998.4127309596436,836.5286273912465 2040.221020400624,820.3458261536529 2065.9967142661926,809.7326999210242 2090.1232419567577,799.3337228801736 2111.6887273815023,789.6411400168611 2166.0912615310826,763.4172749830911 2260.1236928583526,711.4404004011537 2440.171557536954,583.0673170487004 2638.477635933483,382.86113415525836 2652.0,366.3737398466701" fill="none" stroke="#D8C992" stroke-width="3" stroke-linejoin="round" stroke-linecap="round" stroke-dasharray="24 14"/>
<polyline points="1590.0,943.5905511811023 1590.7142082641305,943.1617234998203 1591.0159760032013,942.9799781141804 1591.3735981023854,942.7641749296 1591.7490420009676,942.537137752854 1592.1218630632804,942.3112100841561 1592.3252256586497,942.1877767084474 1592.4768125860473,942.0956801207444 1592.8313790140198,941.8799703418326 1593.050005617327,941.7467613854789 1593.6827978679448,941.3603553950653 1594.2405150173868,941.0187805245365 1594.4076026966961,940.9162681261265 1594.836815695338,940.652566440392 1595.0874409967835,940.498345448911 1596.2628600011528,939.772794906271 1597.322288328126,939.1158506018057 1598.4534046434999,938.4116192019113 1598.5346106961954,938.3609559566754 1599.455187008488,937.7857163253448 1600.1502142280206,937.3503842325488 1600.3715626696226,937.2115700081503 1600.8268873329166,936.9257772807988 1601.5164106137572,936.4923999829979 1602.2111279139056,936.0551148033478 1602.8316888708055,935.6640264877591 1603.897659940332,934.9913498417493 1604.9636965329382,934.3177759765555 1605.7553377725712,933.8172073044025 1606.4815554128359,933.3578523187938 1607.0228363129659,933.0154407693257 1607.3616164614457,932.8011296067431 1608.075980163539,932.3492318786347 1609.2123617605482,931.63041211128 1610.041376982205,931.1060718011599 1610.6841598285243,930.699565063029 1612.4650546550804,929.5735707278601 1613.4193906580613,928.9703896061257 1615.3562768064721,927.7467792044608 1616.773617064646,926.8519869307477 1618.253088028732,925.9186153014242 1618.964924548687,925.4697933448442 1620.127367113659,924.7372622167593 1621.1421369182697,924.0982303897765 1621.9124248079918,923.6134508928179 1625.0796497800263,921.6231377071394 1626.8484936209015,920.5139059757654 1628.6408980307579,919.3918077218951 1629.4590627260766,918.8802956895195 1630.9731671813363,917.9348849265884 1632.5156177817462,916.9734615964016 1633.4241976312123,916.4079737413264 1635.0177724949626,915.4177297914024 1636.8783940830801,914.2642121335898 1638.8171067471203,913.0655200874901 1640.6656108699358,911.9258597920291 1642.3773329334633,910.8735133576002 1643.8357016397322,909.9792905200412 1646.8214951172588,908.155641994255 1647.3250442889153,907.8490690704975 1648.048764878093,907.4089627913029 1651.0492661347864,905.5909501193573 1652.6319373841557,904.6364727476525 1654.1273902404319,903.7375426593655 1657.764749526577,901.5635396511059 1659.7781125874517,900.3680739711291 1661.054269739775,899.6133579121552 1662.838033233717,898.5624751432593 1664.034967721749,897.8600044005591 1665.909950821079,896.7640317256355 1667.3384983954995,895.9327215657635 1669.6678917046327,894.5842330837614 1674.7672158140974,891.6638157391451 1677.0088627193347,890.3942260942508 1681.724170885277,887.7531447015231 1688.3921897407752,884.0894015741691 1691.0248300801134,882.6666823349187 1695.4725104228435,880.2946618844005 1698.6116020801692,878.6449119273195 1702.0190236620283,876.8774362155772 1703.843112546203,875.9413588993217 1705.7984384196975,874.9458410566847 1712.903646871813,871.3982111693786 1717.7738554242471,869.0307632813245 1725.4108731044512,865.4252546835236 1736.2014439117606,860.5558257186646 1741.2801110333878,858.3554198763723 1745.317790987937,856.6476465412775 1764.5248477703858,849.0200138471582 1772.823023933725,845.9703378317062 1775.9478645603592,844.8587366971797 1783.9191714275976,842.1110898239098 1794.5238092569991,838.6424103521907 1801.484554144845,836.4738433952607 1809.2393574522116,834.1510144533713 1815.3514254117947,832.3841303374254 1818.360257186748,831.533552784931 1823.9587456825088,829.9822792438727 1827.05363030497,829.1411582513351 1836.5919737538832,826.6145486240368 1850.6122106367939,823.0473682498211 1859.6439970699041,820.8146241161469 1873.3427538104493,817.4768707990266 1882.7421715910007,815.1891626602433 1888.9275450503378,813.6730360466927 1904.8922701937136,809.7123510274799 1928.1888729918367,803.8078099672399 1940.7507703429887,800.5613138842723 1966.037508987652,793.8900602841296 1971.9302726344106,792.3088513533712 1986.0978202267972,788.4655072206896 1998.4127309596436,785.0762593160376 2040.221020400624,773.2251373356563 2065.9967142661926,765.6453652218328 2090.1232419567577,758.3552885177096 2111.6887273815023,751.6750453080635 2166.0912615310826,734.1096088242645 2260.1236928583526,701.1848366973486 2440.171557536954,627.9174290081664 2638.477635933483,528.7378662264503 2652.0,521.163243722384" fill="none" stroke="#C39232" stroke-width="7" stroke-linejoin="round" stroke-linecap="round"/>
<rect x="1590.0" y="1010.0" width="24.902439024390333" height="44.0" fill="#D4DAE2"/>
<rect x="1615.9024390243903" y="1033.4610671515418" width="24.902439024390105" height="20.53893284845815" fill="#D4DAE2"/>
<rect x="1641.8048780487804" y="1034.8814210796309" width="24.902439024390333" height="19.11857892036909" fill="#D4DAE2"/>
<rect x="1667.7073170731708" y="1039.7570496053684" width="24.902439024390105" height="14.242950394631677" fill="#D4DAE2"/>
<rect x="1693.6097560975609" y="1039.5757443725504" width="24.902439024390333" height="14.424255627449705" fill="#D4DAE2"/>
<rect x="1719.5121951219512" y="1042.5029279720031" width="24.902439024390333" height="11.497072027996946" fill="#D4DAE2"/>
<rect x="1745.4146341463415" y="1045.2584353218383" width="24.902439024390105" height="8.741564678161598" fill="#D4DAE2"/>
<rect x="1771.3170731707316" y="1042.2570573040668" width="24.902439024390333" height="11.742942695933236" fill="#D4DAE2"/>
<rect x="1797.219512195122" y="1041.78736907005" width="24.902439024390105" height="12.212630929949858" fill="#D4DAE2"/>
<rect x="1823.121951219512" y="1043.2944149252746" width="24.902439024390333" height="10.70558507472535" fill="#D4DAE2"/>
<rect x="1849.0243902439024" y="1043.5798910760916" width="24.902439024390333" height="10.42010892390836" fill="#D4DAE2"/>
<rect x="1874.9268292682927" y="1043.2944149252746" width="24.902439024390105" height="10.70558507472535" fill="#D4DAE2"/>
<rect x="1900.8292682926829" y="1046.1285286520333" width="24.902439024390333" height="7.871471347966618" fill="#D4DAE2"/>
<rect x="1926.7317073170732" y="1044.5249127133668" width="24.902439024390333" height="9.47508728663324" fill="#D4DAE2"/>
<rect x="1952.6341463414635" y="1044.878524802684" width="24.902439024390105" height="9.121475197315839" fill="#D4DAE2"/>
<rect x="1978.5365853658536" y="1044.878524802684" width="24.902439024390333" height="9.121475197315839" fill="#D4DAE2"/>
<rect x="2004.439024390244" y="1047.2624563566833" width="24.902439024390333" height="6.73754364331662" fill="#D4DAE2"/>
<rect x="2030.3414634146343" y="1046.1285286520333" width="24.902439024389878" height="7.871471347966618" fill="#D4DAE2"/>
<rect x="2056.243902439024" y="1045.671563446502" width="24.902439024390333" height="8.328436553498051" fill="#D4DAE2"/>
<rect x="2082.1463414634145" y="1046.1285286520333" width="24.902439024390333" height="7.871471347966618" fill="#D4DAE2"/>
<rect x="2108.048780487805" y="1046.6472074626374" width="24.902439024390333" height="7.352792537362675" fill="#D4DAE2"/>
<rect x="2133.951219512195" y="1047.2624563566833" width="24.902439024390333" height="6.73754364331662" fill="#D4DAE2"/>
<rect x="2159.8536585365855" y="1048.0642643260167" width="24.902439024390333" height="5.935735673983309" fill="#D4DAE2"/>
<rect x="2185.756097560976" y="1048.0642643260167" width="24.902439024389878" height="5.935735673983309" fill="#D4DAE2"/>
<rect x="2211.6585365853657" y="1050.0" width="24.902439024390333" height="4.0" fill="#D4DAE2"/>
<rect x="2237.560975609756" y="1046.6472074626374" width="24.902439024390333" height="7.352792537362675" fill="#D4DAE2"/>
<rect x="2263.4634146341464" y="1050.0" width="24.902439024390333" height="4.0" fill="#D4DAE2"/>
<rect x="2289.3658536585367" y="1048.0642643260167" width="24.902439024390333" height="5.935735673983309" fill="#D4DAE2"/>
<rect x="2315.268292682927" y="1050.0" width="24.902439024389878" height="4.0" fill="#D4DAE2"/>
<rect x="2341.170731707317" y="1047.2624563566833" width="24.902439024390333" height="6.73754364331662" fill="#D4DAE2"/>
<rect x="2367.0731707317073" y="1050.0" width="24.902439024390333" height="4.0" fill="#D4DAE2"/>
<rect x="2392.9756097560976" y="1048.0642643260167" width="24.902439024390333" height="5.935735673983309" fill="#D4DAE2"/>
<rect x="2418.878048780488" y="1050.0" width="24.902439024390333" height="4.0" fill="#D4DAE2"/>
<rect x="2444.7804878048782" y="1050.0" width="24.902439024390333" height="4.0" fill="#D4DAE2"/>
<rect x="2470.6829268292686" y="1047.2624563566833" width="24.902439024390333" height="6.73754364331662" fill="#D4DAE2"/>
<rect x="2496.585365853659" y="1050.0" width="24.902439024389878" height="4.0" fill="#D4DAE2"/>
<rect x="2522.487804878049" y="1050.0" width="24.902439024390333" height="4.0" fill="#D4DAE2"/>
<rect x="2548.390243902439" y="1050.0" width="24.902439024390333" height="4.0" fill="#D4DAE2"/>
<rect x="2574.2926829268295" y="1050.0" width="24.902439024389878" height="4.0" fill="#D4DAE2"/>
<rect x="2600.1951219512193" y="1050.0" width="24.902439024390333" height="4.0" fill="#D4DAE2"/>
<rect x="2626.0975609756097" y="1043.2944149252746" width="24.902439024390333" height="10.70558507472535" fill="#D4DAE2"/>
<text x="1590" y="1074" font-size="25" font-weight="400" fill="#66727F" text-anchor="start" dominant-baseline="hanging">eICU distribution</text>
<line x1="1606.772820328334" y1="962" x2="1606.772820328334" y2="1010" stroke="#4F6E56" stroke-width="3"/>
<text x="1606.772820328334" y="1020" font-size="25" font-weight="700" fill="#4F6E56" text-anchor="middle" dominant-baseline="hanging">P50</text>
<line x1="1882.1358320120119" y1="962" x2="1882.1358320120119" y2="1010" stroke="#4F6E56" stroke-width="3"/>
<text x="1882.1358320120119" y="1020" font-size="25" font-weight="700" fill="#4F6E56" text-anchor="middle" dominant-baseline="hanging">P90</text>
<line x1="2652.0" y1="962" x2="2652.0" y2="1010" stroke="#C39232" stroke-width="3"/>
<text x="2652.0" y="1020" font-size="25" font-weight="700" fill="#C39232" text-anchor="middle" dominant-baseline="hanging">P99</text>
<rect x="1608" y="366" width="354" height="50" fill="white" stroke="#CAD3DC" stroke-width="1"/>
<text x="1624" y="377" font-size="29" font-weight="400" fill="#242629" text-anchor="start" dominant-baseline="hanging">RCS vs linear P=0.132</text>
<text x="2121.0" y="1127" font-size="29" font-weight="400" fill="#242629" text-anchor="middle" dominant-baseline="hanging">Hypotension burden, MAP &lt;65 time-weighted deficit</text>
<text x="1160" y="668" font-size="24" font-weight="700" fill="#4B5F95" text-anchor="end" dominant-baseline="hanging">Original RCS</text>
<text x="2590" y="574" font-size="24" font-weight="700" fill="#C39232" text-anchor="end" dominant-baseline="hanging">Winsorized RCS</text>
<text x="2590" y="492" font-size="24" font-weight="700" fill="#9C8C52" text-anchor="end" dominant-baseline="hanging">Linear reference</text>
<text x="42" y="720" transform="rotate(-90 42,720)" font-family="Arial" font-size="30" fill="#242629" text-anchor="middle">Adjusted odds ratio vs zero hypotension burden</text>
<rect x="155" y="1235" width="2490" height="120" fill="#FBF4E2" stroke="#E0C883" stroke-width="2"/>
<text x="185" y="1257" font-size="26" font-weight="400" fill="#242629" text-anchor="start" dominant-baseline="hanging">The original RCS showed nominal curvature, but after capping high-leverage values at the eICU P99 (5.22), the RCS no longer improved fit over the winsorized linear term (P=0.132). Shaded bands are approximate</text>
<text x="185" y="1289" font-size="26" font-weight="400" fill="#242629" text-anchor="start" dominant-baseline="hanging">95% CIs, supporting tail-sensitive shape instability rather than a clinical cutoff.</text>
<text x="1400.0" y="1394" font-size="24" font-weight="400" fill="#66727F" text-anchor="middle" dominant-baseline="hanging">Both panels use the same x- and y-axis scales. P50, P90, and P99 show eICU model-set distribution percentiles.</text>
</svg>
