<svg xmlns="http://www.w3.org/2000/svg" width="2700" height="1620" viewBox="0 0 2700 1620">
<rect width="100%" height="100%" fill="white"/>
<text x="180.0" y="120.0" font-family="Arial" font-size="64" font-weight="bold" fill="#243447" text-anchor="start">Supplementary Figure S2. Spearman correlation matrix</text>
<text x="180.0" y="190.0" font-family="Arial" font-size="34" font-weight="normal" fill="#66727F" text-anchor="start">Main continuous predictors in eICU and MIMIC-IV; weak pairwise correlations support low collinearity concern</text>
<rect x="215" y="280" width="1070" height="1030" rx="12" fill="#FFFFFF" stroke="#CFD8E3" stroke-width="2"/>
<rect x="215" y="280" width="1070" height="72" fill="#52679B"/>
<text x="825.0" y="330.0" font-family="Arial" font-size="38" font-weight="bold" fill="white" text-anchor="middle">eICU</text>
<rect x="475" y="500" width="175" height="175" fill="rgb(244, 246, 248)" stroke="white" stroke-width="4"/>
<text x="562.5" y="599.5" font-family="Arial" font-size="34" font-weight="bold" fill="#66727F" text-anchor="middle">1.00</text>
<rect x="650" y="500" width="175" height="175" fill="rgb(220, 196, 152)" stroke="white" stroke-width="4"/>
<text x="737.5" y="599.5" font-family="Arial" font-size="34" font-weight="bold" fill="#222426" text-anchor="middle">0.20</text>
<rect x="825" y="500" width="175" height="175" fill="rgb(227, 209, 175)" stroke="white" stroke-width="4"/>
<text x="912.5" y="599.5" font-family="Arial" font-size="34" font-weight="bold" fill="#222426" text-anchor="middle">0.15</text>
<rect x="1000" y="500" width="175" height="175" fill="rgb(213, 218, 231)" stroke="white" stroke-width="4"/>
<text x="1087.5" y="599.5" font-family="Arial" font-size="34" font-weight="bold" fill="#222426" text-anchor="middle">-0.09</text>
<rect x="475" y="675" width="175" height="175" fill="rgb(220, 196, 152)" stroke="white" stroke-width="4"/>
<text x="562.5" y="774.5" font-family="Arial" font-size="34" font-weight="bold" fill="#222426" text-anchor="middle">0.20</text>
<rect x="650" y="675" width="175" height="175" fill="rgb(244, 246, 248)" stroke="white" stroke-width="4"/>
<text x="737.5" y="774.5" font-family="Arial" font-size="34" font-weight="bold" fill="#66727F" text-anchor="middle">1.00</text>
<rect x="825" y="675" width="175" height="175" fill="rgb(242, 233, 217)" stroke="white" stroke-width="4"/>
<text x="912.5" y="774.5" font-family="Arial" font-size="34" font-weight="bold" fill="#222426" text-anchor="middle">0.07</text>
<rect x="1000" y="675" width="175" height="175" fill="rgb(239, 241, 246)" stroke="white" stroke-width="4"/>
<text x="1087.5" y="774.5" font-family="Arial" font-size="34" font-weight="bold" fill="#222426" text-anchor="middle">-0.03</text>
<rect x="475" y="850" width="175" height="175" fill="rgb(227, 209, 175)" stroke="white" stroke-width="4"/>
<text x="562.5" y="949.5" font-family="Arial" font-size="34" font-weight="bold" fill="#222426" text-anchor="middle">0.15</text>
<rect x="650" y="850" width="175" height="175" fill="rgb(242, 233, 217)" stroke="white" stroke-width="4"/>
<text x="737.5" y="949.5" font-family="Arial" font-size="34" font-weight="bold" fill="#222426" text-anchor="middle">0.07</text>
<rect x="825" y="850" width="175" height="175" fill="rgb(244, 246, 248)" stroke="white" stroke-width="4"/>
<text x="912.5" y="949.5" font-family="Arial" font-size="34" font-weight="bold" fill="#66727F" text-anchor="middle">1.00</text>
<rect x="1000" y="850" width="175" height="175" fill="rgb(225, 205, 168)" stroke="white" stroke-width="4"/>
<text x="1087.5" y="949.5" font-family="Arial" font-size="34" font-weight="bold" fill="#222426" text-anchor="middle">0.17</text>
<rect x="475" y="1025" width="175" height="175" fill="rgb(213, 218, 231)" stroke="white" stroke-width="4"/>
<text x="562.5" y="1124.5" font-family="Arial" font-size="34" font-weight="bold" fill="#222426" text-anchor="middle">-0.09</text>
<rect x="650" y="1025" width="175" height="175" fill="rgb(239, 241, 246)" stroke="white" stroke-width="4"/>
<text x="737.5" y="1124.5" font-family="Arial" font-size="34" font-weight="bold" fill="#222426" text-anchor="middle">-0.03</text>
<rect x="825" y="1025" width="175" height="175" fill="rgb(225, 205, 168)" stroke="white" stroke-width="4"/>
<text x="912.5" y="1124.5" font-family="Arial" font-size="34" font-weight="bold" fill="#222426" text-anchor="middle">0.17</text>
<rect x="1000" y="1025" width="175" height="175" fill="rgb(244, 246, 248)" stroke="white" stroke-width="4"/>
<text x="1087.5" y="1124.5" font-family="Arial" font-size="34" font-weight="bold" fill="#66727F" text-anchor="middle">1.00</text>
<rect x="1405" y="280" width="1070" height="1030" rx="12" fill="#FFFFFF" stroke="#CFD8E3" stroke-width="2"/>
<rect x="1405" y="280" width="1070" height="72" fill="#4F6E54"/>
<text x="2015.0" y="330.0" font-family="Arial" font-size="38" font-weight="bold" fill="white" text-anchor="middle">MIMIC-IV</text>
<rect x="1665" y="500" width="175" height="175" fill="rgb(244, 246, 248)" stroke="white" stroke-width="4"/>
<text x="1752.5" y="599.5" font-family="Arial" font-size="34" font-weight="bold" fill="#66727F" text-anchor="middle">1.00</text>
<rect x="1840" y="500" width="175" height="175" fill="rgb(249, 245, 238)" stroke="white" stroke-width="4"/>
<text x="1927.5" y="599.5" font-family="Arial" font-size="34" font-weight="bold" fill="#222426" text-anchor="middle">0.03</text>
<rect x="2015" y="500" width="175" height="175" fill="rgb(202, 168, 101)" stroke="white" stroke-width="4"/>
<text x="2102.5" y="599.5" font-family="Arial" font-size="34" font-weight="bold" fill="#222426" text-anchor="middle">0.29</text>
<rect x="2190" y="500" width="175" height="175" fill="rgb(233, 235, 242)" stroke="white" stroke-width="4"/>
<text x="2277.5" y="599.5" font-family="Arial" font-size="34" font-weight="bold" fill="#222426" text-anchor="middle">-0.05</text>
<rect x="1665" y="675" width="175" height="175" fill="rgb(249, 245, 238)" stroke="white" stroke-width="4"/>
<text x="1752.5" y="774.5" font-family="Arial" font-size="34" font-weight="bold" fill="#222426" text-anchor="middle">0.03</text>
<rect x="1840" y="675" width="175" height="175" fill="rgb(244, 246, 248)" stroke="white" stroke-width="4"/>
<text x="1927.5" y="774.5" font-family="Arial" font-size="34" font-weight="bold" fill="#66727F" text-anchor="middle">1.00</text>
<rect x="2015" y="675" width="175" height="175" fill="rgb(233, 218, 191)" stroke="white" stroke-width="4"/>
<text x="2102.5" y="774.5" font-family="Arial" font-size="34" font-weight="bold" fill="#222426" text-anchor="middle">0.12</text>
<rect x="2190" y="675" width="175" height="175" fill="rgb(236, 238, 244)" stroke="white" stroke-width="4"/>
<text x="2277.5" y="774.5" font-family="Arial" font-size="34" font-weight="bold" fill="#222426" text-anchor="middle">-0.04</text>
<rect x="1665" y="850" width="175" height="175" fill="rgb(202, 168, 101)" stroke="white" stroke-width="4"/>
<text x="1752.5" y="949.5" font-family="Arial" font-size="34" font-weight="bold" fill="#222426" text-anchor="middle">0.29</text>
<rect x="1840" y="850" width="175" height="175" fill="rgb(233, 218, 191)" stroke="white" stroke-width="4"/>
<text x="1927.5" y="949.5" font-family="Arial" font-size="34" font-weight="bold" fill="#222426" text-anchor="middle">0.12</text>
<rect x="2015" y="850" width="175" height="175" fill="rgb(244, 246, 248)" stroke="white" stroke-width="4"/>
<text x="2102.5" y="949.5" font-family="Arial" font-size="34" font-weight="bold" fill="#66727F" text-anchor="middle">1.00</text>
<rect x="2190" y="850" width="175" height="175" fill="rgb(244, 237, 224)" stroke="white" stroke-width="4"/>
<text x="2277.5" y="949.5" font-family="Arial" font-size="34" font-weight="bold" fill="#222426" text-anchor="middle">0.06</text>
<rect x="1665" y="1025" width="175" height="175" fill="rgb(233, 235, 242)" stroke="white" stroke-width="4"/>
<text x="1752.5" y="1124.5" font-family="Arial" font-size="34" font-weight="bold" fill="#222426" text-anchor="middle">-0.05</text>
<rect x="1840" y="1025" width="175" height="175" fill="rgb(236, 238, 244)" stroke="white" stroke-width="4"/>
<text x="1927.5" y="1124.5" font-family="Arial" font-size="34" font-weight="bold" fill="#222426" text-anchor="middle">-0.04</text>
<rect x="2015" y="1025" width="175" height="175" fill="rgb(244, 237, 224)" stroke="white" stroke-width="4"/>
<text x="2102.5" y="1124.5" font-family="Arial" font-size="34" font-weight="bold" fill="#222426" text-anchor="middle">0.06</text>
<rect x="2190" y="1025" width="175" height="175" fill="rgb(244, 246, 248)" stroke="white" stroke-width="4"/>
<text x="2277.5" y="1124.5" font-family="Arial" font-size="34" font-weight="bold" fill="#66727F" text-anchor="middle">1.00</text>
<text x="1345.0" y="1343.0" font-family="Arial" font-size="30" font-weight="bold" fill="#222426" text-anchor="middle">Spearman rho</text>
<line x1="985" y1="1395" x2="985" y2="1429" stroke="rgb(82, 103, 155)" stroke-width="4"/>
<line x1="989" y1="1395" x2="989" y2="1429" stroke="rgb(84, 104, 156)" stroke-width="4"/>
<line x1="993" y1="1395" x2="993" y2="1429" stroke="rgb(86, 106, 157)" stroke-width="4"/>
<line x1="997" y1="1395" x2="997" y2="1429" stroke="rgb(88, 108, 158)" stroke-width="4"/>
<line x1="1001" y1="1395" x2="1001" y2="1429" stroke="rgb(90, 110, 160)" stroke-width="4"/>
<line x1="1005" y1="1395" x2="1005" y2="1429" stroke="rgb(92, 112, 161)" stroke-width="4"/>
<line x1="1009" y1="1395" x2="1009" y2="1429" stroke="rgb(94, 114, 162)" stroke-width="4"/>
<line x1="1013" y1="1395" x2="1013" y2="1429" stroke="rgb(97, 116, 163)" stroke-width="4"/>
<line x1="1017" y1="1395" x2="1017" y2="1429" stroke="rgb(99, 118, 165)" stroke-width="4"/>
<line x1="1021" y1="1395" x2="1021" y2="1429" stroke="rgb(101, 120, 166)" stroke-width="4"/>
<line x1="1025" y1="1395" x2="1025" y2="1429" stroke="rgb(103, 122, 167)" stroke-width="4"/>
<line x1="1029" y1="1395" x2="1029" y2="1429" stroke="rgb(105, 123, 168)" stroke-width="4"/>
<line x1="1033" y1="1395" x2="1033" y2="1429" stroke="rgb(107, 125, 170)" stroke-width="4"/>
<line x1="1037" y1="1395" x2="1037" y2="1429" stroke="rgb(110, 127, 171)" stroke-width="4"/>
<line x1="1041" y1="1395" x2="1041" y2="1429" stroke="rgb(112, 129, 172)" stroke-width="4"/>
<line x1="1045" y1="1395" x2="1045" y2="1429" stroke="rgb(114, 131, 173)" stroke-width="4"/>
<line x1="1049" y1="1395" x2="1049" y2="1429" stroke="rgb(116, 133, 175)" stroke-width="4"/>
<line x1="1053" y1="1395" x2="1053" y2="1429" stroke="rgb(118, 135, 176)" stroke-width="4"/>
<line x1="1057" y1="1395" x2="1057" y2="1429" stroke="rgb(120, 137, 177)" stroke-width="4"/>
<line x1="1061" y1="1395" x2="1061" y2="1429" stroke="rgb(123, 139, 178)" stroke-width="4"/>
<line x1="1065" y1="1395" x2="1065" y2="1429" stroke="rgb(125, 141, 180)" stroke-width="4"/>
<line x1="1069" y1="1395" x2="1069" y2="1429" stroke="rgb(127, 142, 181)" stroke-width="4"/>
<line x1="1073" y1="1395" x2="1073" y2="1429" stroke="rgb(129, 144, 182)" stroke-width="4"/>
<line x1="1077" y1="1395" x2="1077" y2="1429" stroke="rgb(131, 146, 183)" stroke-width="4"/>
<line x1="1081" y1="1395" x2="1081" y2="1429" stroke="rgb(133, 148, 185)" stroke-width="4"/>
<line x1="1085" y1="1395" x2="1085" y2="1429" stroke="rgb(136, 150, 186)" stroke-width="4"/>
<line x1="1089" y1="1395" x2="1089" y2="1429" stroke="rgb(138, 152, 187)" stroke-width="4"/>
<line x1="1093" y1="1395" x2="1093" y2="1429" stroke="rgb(140, 154, 188)" stroke-width="4"/>
<line x1="1097" y1="1395" x2="1097" y2="1429" stroke="rgb(142, 156, 190)" stroke-width="4"/>
<line x1="1101" y1="1395" x2="1101" y2="1429" stroke="rgb(144, 158, 191)" stroke-width="4"/>
<line x1="1105" y1="1395" x2="1105" y2="1429" stroke="rgb(146, 160, 192)" stroke-width="4"/>
<line x1="1109" y1="1395" x2="1109" y2="1429" stroke="rgb(149, 161, 193)" stroke-width="4"/>
<line x1="1113" y1="1395" x2="1113" y2="1429" stroke="rgb(151, 163, 195)" stroke-width="4"/>
<line x1="1117" y1="1395" x2="1117" y2="1429" stroke="rgb(153, 165, 196)" stroke-width="4"/>
<line x1="1121" y1="1395" x2="1121" y2="1429" stroke="rgb(155, 167, 197)" stroke-width="4"/>
<line x1="1125" y1="1395" x2="1125" y2="1429" stroke="rgb(157, 169, 198)" stroke-width="4"/>
<line x1="1129" y1="1395" x2="1129" y2="1429" stroke="rgb(159, 171, 200)" stroke-width="4"/>
<line x1="1133" y1="1395" x2="1133" y2="1429" stroke="rgb(162, 173, 201)" stroke-width="4"/>
<line x1="1137" y1="1395" x2="1137" y2="1429" stroke="rgb(164, 175, 202)" stroke-width="4"/>
<line x1="1141" y1="1395" x2="1141" y2="1429" stroke="rgb(166, 177, 203)" stroke-width="4"/>
<line x1="1145" y1="1395" x2="1145" y2="1429" stroke="rgb(168, 179, 205)" stroke-width="4"/>
<line x1="1149" y1="1395" x2="1149" y2="1429" stroke="rgb(170, 180, 206)" stroke-width="4"/>
<line x1="1153" y1="1395" x2="1153" y2="1429" stroke="rgb(172, 182, 207)" stroke-width="4"/>
<line x1="1157" y1="1395" x2="1157" y2="1429" stroke="rgb(174, 184, 208)" stroke-width="4"/>
<line x1="1161" y1="1395" x2="1161" y2="1429" stroke="rgb(177, 186, 210)" stroke-width="4"/>
<line x1="1165" y1="1395" x2="1165" y2="1429" stroke="rgb(179, 188, 211)" stroke-width="4"/>
<line x1="1169" y1="1395" x2="1169" y2="1429" stroke="rgb(181, 190, 212)" stroke-width="4"/>
<line x1="1173" y1="1395" x2="1173" y2="1429" stroke="rgb(183, 192, 213)" stroke-width="4"/>
<line x1="1177" y1="1395" x2="1177" y2="1429" stroke="rgb(185, 194, 215)" stroke-width="4"/>
<line x1="1181" y1="1395" x2="1181" y2="1429" stroke="rgb(187, 196, 216)" stroke-width="4"/>
<line x1="1185" y1="1395" x2="1185" y2="1429" stroke="rgb(190, 198, 217)" stroke-width="4"/>
<line x1="1189" y1="1395" x2="1189" y2="1429" stroke="rgb(192, 199, 218)" stroke-width="4"/>
<line x1="1193" y1="1395" x2="1193" y2="1429" stroke="rgb(194, 201, 220)" stroke-width="4"/>
<line x1="1197" y1="1395" x2="1197" y2="1429" stroke="rgb(196, 203, 221)" stroke-width="4"/>
<line x1="1201" y1="1395" x2="1201" y2="1429" stroke="rgb(198, 205, 222)" stroke-width="4"/>
<line x1="1205" y1="1395" x2="1205" y2="1429" stroke="rgb(200, 207, 223)" stroke-width="4"/>
<line x1="1209" y1="1395" x2="1209" y2="1429" stroke="rgb(203, 209, 225)" stroke-width="4"/>
<line x1="1213" y1="1395" x2="1213" y2="1429" stroke="rgb(205, 211, 226)" stroke-width="4"/>
<line x1="1217" y1="1395" x2="1217" y2="1429" stroke="rgb(207, 213, 227)" stroke-width="4"/>
<line x1="1221" y1="1395" x2="1221" y2="1429" stroke="rgb(209, 215, 228)" stroke-width="4"/>
<line x1="1225" y1="1395" x2="1225" y2="1429" stroke="rgb(211, 217, 230)" stroke-width="4"/>
<line x1="1229" y1="1395" x2="1229" y2="1429" stroke="rgb(213, 218, 231)" stroke-width="4"/>
<line x1="1233" y1="1395" x2="1233" y2="1429" stroke="rgb(216, 220, 232)" stroke-width="4"/>
<line x1="1237" y1="1395" x2="1237" y2="1429" stroke="rgb(218, 222, 233)" stroke-width="4"/>
<line x1="1241" y1="1395" x2="1241" y2="1429" stroke="rgb(220, 224, 235)" stroke-width="4"/>
<line x1="1245" y1="1395" x2="1245" y2="1429" stroke="rgb(222, 226, 236)" stroke-width="4"/>
<line x1="1249" y1="1395" x2="1249" y2="1429" stroke="rgb(224, 228, 237)" stroke-width="4"/>
<line x1="1253" y1="1395" x2="1253" y2="1429" stroke="rgb(226, 230, 238)" stroke-width="4"/>
<line x1="1257" y1="1395" x2="1257" y2="1429" stroke="rgb(229, 232, 240)" stroke-width="4"/>
<line x1="1261" y1="1395" x2="1261" y2="1429" stroke="rgb(231, 234, 241)" stroke-width="4"/>
<line x1="1265" y1="1395" x2="1265" y2="1429" stroke="rgb(233, 235, 242)" stroke-width="4"/>
<line x1="1269" y1="1395" x2="1269" y2="1429" stroke="rgb(235, 237, 243)" stroke-width="4"/>
<line x1="1273" y1="1395" x2="1273" y2="1429" stroke="rgb(237, 239, 245)" stroke-width="4"/>
<line x1="1277" y1="1395" x2="1277" y2="1429" stroke="rgb(239, 241, 246)" stroke-width="4"/>
<line x1="1281" y1="1395" x2="1281" y2="1429" stroke="rgb(242, 243, 247)" stroke-width="4"/>
<line x1="1285" y1="1395" x2="1285" y2="1429" stroke="rgb(244, 245, 248)" stroke-width="4"/>
<line x1="1289" y1="1395" x2="1289" y2="1429" stroke="rgb(246, 247, 250)" stroke-width="4"/>
<line x1="1293" y1="1395" x2="1293" y2="1429" stroke="rgb(248, 249, 251)" stroke-width="4"/>
<line x1="1297" y1="1395" x2="1297" y2="1429" stroke="rgb(250, 251, 252)" stroke-width="4"/>
<line x1="1301" y1="1395" x2="1301" y2="1429" stroke="rgb(252, 253, 253)" stroke-width="4"/>
<line x1="1305" y1="1395" x2="1305" y2="1429" stroke="rgb(255, 255, 255)" stroke-width="4"/>
<line x1="1309" y1="1395" x2="1309" y2="1429" stroke="rgb(254, 253, 252)" stroke-width="4"/>
<line x1="1313" y1="1395" x2="1313" y2="1429" stroke="rgb(253, 252, 249)" stroke-width="4"/>
<line x1="1317" y1="1395" x2="1317" y2="1429" stroke="rgb(252, 250, 247)" stroke-width="4"/>
<line x1="1321" y1="1395" x2="1321" y2="1429" stroke="rgb(251, 249, 244)" stroke-width="4"/>
<line x1="1325" y1="1395" x2="1325" y2="1429" stroke="rgb(250, 247, 242)" stroke-width="4"/>
<line x1="1329" y1="1395" x2="1329" y2="1429" stroke="rgb(249, 246, 239)" stroke-width="4"/>
<line x1="1333" y1="1395" x2="1333" y2="1429" stroke="rgb(248, 244, 236)" stroke-width="4"/>
<line x1="1337" y1="1395" x2="1337" y2="1429" stroke="rgb(247, 243, 234)" stroke-width="4"/>
<line x1="1341" y1="1395" x2="1341" y2="1429" stroke="rgb(247, 241, 231)" stroke-width="4"/>
<line x1="1345" y1="1395" x2="1345" y2="1429" stroke="rgb(246, 240, 229)" stroke-width="4"/>
<line x1="1349" y1="1395" x2="1349" y2="1429" stroke="rgb(245, 238, 226)" stroke-width="4"/>
<line x1="1353" y1="1395" x2="1353" y2="1429" stroke="rgb(244, 237, 223)" stroke-width="4"/>
<line x1="1357" y1="1395" x2="1357" y2="1429" stroke="rgb(243, 235, 221)" stroke-width="4"/>
<line x1="1361" y1="1395" x2="1361" y2="1429" stroke="rgb(242, 234, 218)" stroke-width="4"/>
<line x1="1365" y1="1395" x2="1365" y2="1429" stroke="rgb(241, 232, 216)" stroke-width="4"/>
<line x1="1369" y1="1395" x2="1369" y2="1429" stroke="rgb(240, 231, 213)" stroke-width="4"/>
<line x1="1373" y1="1395" x2="1373" y2="1429" stroke="rgb(239, 229, 210)" stroke-width="4"/>
<line x1="1377" y1="1395" x2="1377" y2="1429" stroke="rgb(239, 228, 208)" stroke-width="4"/>
<line x1="1381" y1="1395" x2="1381" y2="1429" stroke="rgb(238, 226, 205)" stroke-width="4"/>
<line x1="1385" y1="1395" x2="1385" y2="1429" stroke="rgb(237, 225, 203)" stroke-width="4"/>
<line x1="1389" y1="1395" x2="1389" y2="1429" stroke="rgb(236, 224, 200)" stroke-width="4"/>
<line x1="1393" y1="1395" x2="1393" y2="1429" stroke="rgb(235, 222, 197)" stroke-width="4"/>
<line x1="1397" y1="1395" x2="1397" y2="1429" stroke="rgb(234, 221, 195)" stroke-width="4"/>
<line x1="1401" y1="1395" x2="1401" y2="1429" stroke="rgb(233, 219, 192)" stroke-width="4"/>
<line x1="1405" y1="1395" x2="1405" y2="1429" stroke="rgb(232, 218, 190)" stroke-width="4"/>
<line x1="1409" y1="1395" x2="1409" y2="1429" stroke="rgb(231, 216, 187)" stroke-width="4"/>
<line x1="1413" y1="1395" x2="1413" y2="1429" stroke="rgb(231, 215, 184)" stroke-width="4"/>
<line x1="1417" y1="1395" x2="1417" y2="1429" stroke="rgb(230, 213, 182)" stroke-width="4"/>
<line x1="1421" y1="1395" x2="1421" y2="1429" stroke="rgb(229, 212, 179)" stroke-width="4"/>
<line x1="1425" y1="1395" x2="1425" y2="1429" stroke="rgb(228, 210, 177)" stroke-width="4"/>
<line x1="1429" y1="1395" x2="1429" y2="1429" stroke="rgb(227, 209, 174)" stroke-width="4"/>
<line x1="1433" y1="1395" x2="1433" y2="1429" stroke="rgb(226, 207, 171)" stroke-width="4"/>
<line x1="1437" y1="1395" x2="1437" y2="1429" stroke="rgb(225, 206, 169)" stroke-width="4"/>
<line x1="1441" y1="1395" x2="1441" y2="1429" stroke="rgb(224, 204, 166)" stroke-width="4"/>
<line x1="1445" y1="1395" x2="1445" y2="1429" stroke="rgb(223, 203, 164)" stroke-width="4"/>
<line x1="1449" y1="1395" x2="1449" y2="1429" stroke="rgb(223, 201, 161)" stroke-width="4"/>
<line x1="1453" y1="1395" x2="1453" y2="1429" stroke="rgb(222, 200, 158)" stroke-width="4"/>
<line x1="1457" y1="1395" x2="1457" y2="1429" stroke="rgb(221, 198, 156)" stroke-width="4"/>
<line x1="1461" y1="1395" x2="1461" y2="1429" stroke="rgb(220, 197, 153)" stroke-width="4"/>
<line x1="1465" y1="1395" x2="1465" y2="1429" stroke="rgb(219, 196, 151)" stroke-width="4"/>
<line x1="1469" y1="1395" x2="1469" y2="1429" stroke="rgb(218, 194, 148)" stroke-width="4"/>
<line x1="1473" y1="1395" x2="1473" y2="1429" stroke="rgb(217, 193, 145)" stroke-width="4"/>
<line x1="1477" y1="1395" x2="1477" y2="1429" stroke="rgb(216, 191, 143)" stroke-width="4"/>
<line x1="1481" y1="1395" x2="1481" y2="1429" stroke="rgb(215, 190, 140)" stroke-width="4"/>
<line x1="1485" y1="1395" x2="1485" y2="1429" stroke="rgb(215, 188, 138)" stroke-width="4"/>
<line x1="1489" y1="1395" x2="1489" y2="1429" stroke="rgb(214, 187, 135)" stroke-width="4"/>
<line x1="1493" y1="1395" x2="1493" y2="1429" stroke="rgb(213, 185, 132)" stroke-width="4"/>
<line x1="1497" y1="1395" x2="1497" y2="1429" stroke="rgb(212, 184, 130)" stroke-width="4"/>
<line x1="1501" y1="1395" x2="1501" y2="1429" stroke="rgb(211, 182, 127)" stroke-width="4"/>
<line x1="1505" y1="1395" x2="1505" y2="1429" stroke="rgb(210, 181, 125)" stroke-width="4"/>
<line x1="1509" y1="1395" x2="1509" y2="1429" stroke="rgb(209, 179, 122)" stroke-width="4"/>
<line x1="1513" y1="1395" x2="1513" y2="1429" stroke="rgb(208, 178, 119)" stroke-width="4"/>
<line x1="1517" y1="1395" x2="1517" y2="1429" stroke="rgb(207, 176, 117)" stroke-width="4"/>
<line x1="1521" y1="1395" x2="1521" y2="1429" stroke="rgb(207, 175, 114)" stroke-width="4"/>
<line x1="1525" y1="1395" x2="1525" y2="1429" stroke="rgb(206, 173, 112)" stroke-width="4"/>
<line x1="1529" y1="1395" x2="1529" y2="1429" stroke="rgb(205, 172, 109)" stroke-width="4"/>
<line x1="1533" y1="1395" x2="1533" y2="1429" stroke="rgb(204, 170, 106)" stroke-width="4"/>
<line x1="1537" y1="1395" x2="1537" y2="1429" stroke="rgb(203, 169, 104)" stroke-width="4"/>
<line x1="1541" y1="1395" x2="1541" y2="1429" stroke="rgb(202, 167, 101)" stroke-width="4"/>
<line x1="1545" y1="1395" x2="1545" y2="1429" stroke="rgb(201, 166, 99)" stroke-width="4"/>
<line x1="1549" y1="1395" x2="1549" y2="1429" stroke="rgb(200, 165, 96)" stroke-width="4"/>
<line x1="1553" y1="1395" x2="1553" y2="1429" stroke="rgb(199, 163, 93)" stroke-width="4"/>
<line x1="1557" y1="1395" x2="1557" y2="1429" stroke="rgb(199, 162, 91)" stroke-width="4"/>
<line x1="1561" y1="1395" x2="1561" y2="1429" stroke="rgb(198, 160, 88)" stroke-width="4"/>
<line x1="1565" y1="1395" x2="1565" y2="1429" stroke="rgb(197, 159, 86)" stroke-width="4"/>
<line x1="1569" y1="1395" x2="1569" y2="1429" stroke="rgb(196, 157, 83)" stroke-width="4"/>
<line x1="1573" y1="1395" x2="1573" y2="1429" stroke="rgb(195, 156, 80)" stroke-width="4"/>
<line x1="1577" y1="1395" x2="1577" y2="1429" stroke="rgb(194, 154, 78)" stroke-width="4"/>
<line x1="1581" y1="1395" x2="1581" y2="1429" stroke="rgb(193, 153, 75)" stroke-width="4"/>
<line x1="1585" y1="1395" x2="1585" y2="1429" stroke="rgb(192, 151, 73)" stroke-width="4"/>
<line x1="1589" y1="1395" x2="1589" y2="1429" stroke="rgb(191, 150, 70)" stroke-width="4"/>
<line x1="1593" y1="1395" x2="1593" y2="1429" stroke="rgb(191, 148, 67)" stroke-width="4"/>
<line x1="1597" y1="1395" x2="1597" y2="1429" stroke="rgb(190, 147, 65)" stroke-width="4"/>
<line x1="1601" y1="1395" x2="1601" y2="1429" stroke="rgb(189, 145, 62)" stroke-width="4"/>
<line x1="1605" y1="1395" x2="1605" y2="1429" stroke="rgb(188, 144, 60)" stroke-width="4"/>
<line x1="1609" y1="1395" x2="1609" y2="1429" stroke="rgb(187, 142, 57)" stroke-width="4"/>
<line x1="1613" y1="1395" x2="1613" y2="1429" stroke="rgb(186, 141, 54)" stroke-width="4"/>
<line x1="1617" y1="1395" x2="1617" y2="1429" stroke="rgb(185, 139, 52)" stroke-width="4"/>
<line x1="1621" y1="1395" x2="1621" y2="1429" stroke="rgb(184, 138, 49)" stroke-width="4"/>
<line x1="1625" y1="1395" x2="1625" y2="1429" stroke="rgb(184, 137, 47)" stroke-width="4"/>
<line x1="985" y1="1429" x2="985" y2="1447" stroke="#8B96A3" stroke-width="2"/>
<text x="985.0" y="1475.0" font-family="Arial" font-size="25" font-weight="normal" fill="#66727F" text-anchor="middle">-0.4</text>
<line x1="1305" y1="1429" x2="1305" y2="1447" stroke="#8B96A3" stroke-width="2"/>
<text x="1305.0" y="1475.0" font-family="Arial" font-size="25" font-weight="normal" fill="#66727F" text-anchor="middle">0</text>
<line x1="1625" y1="1429" x2="1625" y2="1447" stroke="#8B96A3" stroke-width="2"/>
<text x="1625.0" y="1475.0" font-family="Arial" font-size="25" font-weight="normal" fill="#66727F" text-anchor="middle">+0.4</text>
<text x="180.0" y="1518.0" font-family="Arial" font-size="28" font-weight="normal" fill="#66727F" text-anchor="start">Diagonal cells are neutral gray; the off-diagonal color scale is capped at +/-0.4 to reveal weak-to-modest variation.</text>
<text x="180.0" y="1560.0" font-family="Arial" font-size="28" font-weight="normal" fill="#66727F" text-anchor="start">All off-diagonal absolute rho values are &lt;=0.30, so darker cells do not indicate strong correlation; VIF diagnostics are in Supplementary Table S8.</text>
</svg>